<svg width="18" height="18" viewBox="0 0 18 18" fill="none" xmlns="http://www.w3.org/2000/svg">
<path fill-rule="evenodd" clip-rule="evenodd" d="M9.00002 17.3334C4.40002 17.3334 0.666687 13.6084 0.666687 9.00008C0.666687 4.40008 4.40002 0.666748 9.00002 0.666748C13.6084 0.666748 17.3334 4.40008 17.3334 9.00008C17.3334 13.6084 13.6084 17.3334 9.00002 17.3334ZM11.6584 12.0917C11.7584 12.1501 11.8667 12.1834 11.9834 12.1834C12.1917 12.1834 12.4 12.0751 12.5167 11.8751C12.6917 11.5834 12.6 11.2001 12.3 11.0167L9.33335 9.25005V5.40005C9.33335 5.05005 9.05002 4.77505 8.70835 4.77505C8.36669 4.77505 8.08335 5.05005 8.08335 5.40005V9.60839C8.08335 9.82505 8.20002 10.0251 8.39169 10.1417L11.6584 12.0917Z" fill="#F77E53"/>
</svg>
